Coordinates
version=1
nRows=27
nColumns=19
inDegrees=yes

Units are S.I. units (second, meters, Newtons, ...)
If the header above contains a line with 'inDegrees', this indicates whether rotational values are in degrees (yes) or radians (no).

endheader
time	pelvis_tilt	pelvis_list	pelvis_rotation	pelvis_tx	pelvis_ty	pelvis_tz	hip_flexion_r	hip_adduction_r	hip_rotation_r	knee_angle_r	knee_angle_r_beta	ankle_angle_r	hip_flexion_l	hip_adduction_l	hip_rotation_l	knee_angle_l	knee_angle_l_beta	ankle_angle_l
     13.46666667	     -6.02458346	      6.56732932	      4.82061640	      2.44675018	      0.95071015	      1.07523791	    -10.40584319	    -11.53083875	    -24.32917869	     42.74868831	      0.74610536	    -19.30638615	     22.10800595	     10.81824088	     -5.22072533	      4.58601898	      0.08004113	      5.94120882
     13.47333333	     -5.12898064	      7.28318848	      5.12828906	      2.44651153	      0.94819609	      1.07434499	    -10.67392931	    -12.69241592	    -24.03333570	     45.65929022	      0.79690495	    -18.36695030	     21.24115698	     11.74056807	     -4.98259943	      5.92079666	      0.10333740	      5.46728653
     13.48000000	     -4.13383216	      8.06159174	      5.45854459	      2.44609398	      0.94545581	      1.07356075	    -10.98735279	    -13.83727277	    -23.63692916	     48.61242313	      0.84844684	    -17.21719872	     20.35463470	     12.67327046	     -4.84726146	      7.65845245	      0.13366521	      4.99126366
     13.48666667	     -3.07795392	      8.88622645	      5.74845492	      2.44544812	      0.94247422	      1.07286618	    -11.26835869	    -15.02602722	    -23.19390252	     51.64698154	      0.90140988	    -16.11217199	     19.53253073	     13.57540241	     -4.92461599	      9.82287795	      0.17144156	      4.64139582
     13.49333333	     -2.19254891	      9.60325534	      6.06482800	      2.44451785	      0.93903581	      1.07224678	    -11.23629717	    -16.06470167	    -22.62126359	     54.73737976	      0.95534750	    -14.94396193	     19.04967930	     14.31515105	     -5.13019879	     12.42293753	      0.21682116	      4.48893117
     13.50000000	     -1.04690714	     10.41615944	      6.38925748	      2.44343488	      0.93570109	      1.07173558	    -11.47885682	    -17.14988746	    -22.15819736	     57.78261263	      1.00849684	    -13.73263323	     18.27625277	     15.08977213	     -5.35144269	     15.12727397	      0.26402074	      4.50911147
     13.50666667	     -0.15191313	     11.10262649	      6.74779841	      2.44209162	      0.93194606	      1.07126297	    -11.31666268	    -18.06782522	    -21.54931683	     60.84728584	      1.06198548	    -12.47811914	     17.85937321	     15.70396379	     -5.59590323	     18.07492882	      0.31546702	      4.84566749
     13.51333333	      1.03872292	     11.90679689	      7.05610136	      2.44068946	      0.92853641	      1.07099545	    -11.47931228	    -19.09246646	    -21.10190862	     63.81247727	      1.11373783	    -11.25320127	     17.02151902	     16.37354237	     -5.79327481	     20.90855625	      0.36492315	      5.43771727
     13.52000000	      1.79319862	     12.44217419	      7.39447738	      2.43882787	      0.92467134	      1.07066123	    -10.92325443	    -19.83289326	    -20.36319857	     66.82622136	      1.16633759	    -10.13214620	     16.77668169	     16.76062906	     -6.03267258	     23.97087829	      0.41837075	      6.35976201
     13.52666667	      2.78420834	     13.08813589	      7.68811705	      2.43693425	      0.92126277	      1.07048664	    -10.63240007	    -20.66468366	    -19.75086840	     69.69041106	      1.21632713	     -8.99313518	     16.08481141	     17.23839432	     -6.10083086	     26.72237031	      0.46639335	      7.52828253
     13.53333333	      3.57791038	     13.61451335	      7.96068350	      2.43486142	      0.91791495	      1.07042951	     -9.97283805	    -21.36187128	    -18.98782357	     72.47435380	      1.26491610	     -7.87183395	     15.52639792	     17.60492216	     -6.07440821	     29.33191526	      0.51193850	      8.94210566
     13.54000000	      3.63248368	     13.81216761	      8.22652657	      2.43250790	      0.91415770	      1.07036238	     -8.16051652	    -21.71771383	    -17.70879280	     75.27527188	      1.31380134	     -6.84076272	     15.74787865	     17.71321835	     -6.03109051	     31.83695960	      0.55565977	     10.49566367
     13.54666667	      3.87911621	     14.04619290	      8.43541113	      2.43009395	      0.91109422	      1.07044317	     -6.52286559	    -22.07820563	    -16.50337075	     77.85854409	      1.35888795	     -5.83279025	     15.54286447	     17.85671671	     -5.84704629	     33.94936356	      0.59252817	     12.09985083
     13.55333333	      3.86752664	     14.11946036	      8.60090003	      2.42757514	      0.90830229	      1.07057071	     -4.43803000	    -22.26393641	    -15.13101301	     80.28009210	      1.40115193	     -4.89529002	     15.46714282	     17.87788732	     -5.60844970	     35.74689958	      0.62390109	     13.71991307
     13.56000000	      3.66990744	     14.05852331	      8.73061317	      2.42494111	      0.90590873	      1.07075081	     -2.01652318	    -22.27366976	    -13.64074536	     82.50300008	      1.43994899	     -3.99120704	     15.43673185	     17.78516514	     -5.34017460	     37.22640883	      0.64972340	     15.22879348
     13.56666667	      3.35588008	     13.89381248	      8.73417244	      2.42247881	      0.90404520	      1.07116635	      0.64758962	    -22.12547840	    -12.01737876	     84.46519991	      1.47419584	     -3.25409524	     15.32021705	     17.57902727	     -5.08088289	     38.29085263	      0.66830145	     16.69659907
     13.57333333	      2.91965856	     13.61226542	      8.72599087	      2.42003806	      0.90268203	      1.07156520	      3.47075250	    -21.82108396	    -10.43755475	     86.14429451	      1.50350157	     -2.55432685	     15.16232474	     17.26780045	     -4.80202724	     39.02191288	      0.68106086	     17.96002246
     13.58000000	      2.39444986	     13.22586423	      8.69812697	      2.41777618	      0.90187505	      1.07197291	      6.36242263	    -21.40151649	     -8.98001499	     87.50087065	      1.52717829	     -1.92049518	     14.90699982	     16.84968432	     -4.50018529	     39.40380869	      0.68772620	     19.06066332
     13.58666667	      2.58984650	     12.94306252	      8.86556439	      2.41582851	      0.90265900	      1.07209188	      8.07306845	    -21.09880101	     -8.24475909	     88.31431977	      1.54137566	     -1.32079702	     13.54179766	     16.55837522	     -3.66558182	     39.32325193	      0.68632022	     19.92320327
     13.59333333	      1.76927224	     12.39215337	      8.36909657	      2.41429524	      0.90276362	      1.07295979	     11.40500068	    -20.43193184	     -6.52687218	     89.05448122	      1.55429391	     -0.80442123	     13.25256818	     15.81620235	     -4.03021579	     38.92642272	      0.67939424	     20.67885184
     13.60000000	      1.63172448	     11.88172709	      8.52252086	      2.41308614	      0.90440280	      1.07290805	     13.29152916	    -20.02385850	     -6.15096111	     89.18254325	      1.55652901	     -0.22254232	     11.90502343	     15.29312113	     -3.27723745	     38.20565491	      0.66681447	     21.22396328
     13.60666667	      1.18226544	     11.35648602	      8.22940731	      2.41226874	      0.90608992	      1.07330530	     15.69330236	    -19.49017698	     -5.29908614	     89.09934711	      1.55507697	      0.27326453	     10.78406124	     14.64271029	     -3.20469002	     37.13968384	      0.64820977	     21.54119555
     13.61333333	      0.82437907	     10.70014921	      8.32267352	      2.41206039	      0.90852028	      1.07303195	     17.50869042	    -19.12667871	     -5.38856745	     88.49061228	      1.54445254	      0.88270990	      9.37377043	     13.94713567	     -2.63343276	     35.86149525	      0.62590117	     21.77398290
     13.62000000	      0.98347484	     10.21607560	      8.06730004	      2.41209973	      0.91196218	      1.07317565	     18.75264403	    -18.74712567	     -5.26846326	     87.61957269	      1.52925003	      1.46159230	      7.16897232	     13.31859685	     -2.29748760	     34.02544447	      0.59385604	     21.64859892
     13.62666667	      0.47636525	      9.43872922	      8.16217219	      2.41250384	      0.91494828	      1.07276639	     20.43530498	    -18.33741529	     -5.73502005	     86.41587114	      1.50824148	      2.08475575	      5.70314889	     12.51466823	     -1.71875664	     32.27697722	      0.56333953	     21.44731763
     13.63333333	      1.31186378	      8.91024651	      8.03829150	      2.41367459	      0.91997889	      1.07240335	     20.30378530	    -18.16745484	     -6.60911990	     84.70868161	      1.47844540	      2.78775047	      2.42126417	     11.78091119	     -1.12595925	     29.83218952	      0.52066993	     20.89362898
     13.64000000	      0.58487727	      7.99511757	      8.14494979	      2.41477946	      0.92313656	      1.07187270	     21.89263314	    -17.73213652	     -7.51413793	     82.94661026	      1.44769145	      3.46454705	      1.09727405	     10.84399914	     -0.60623366	     27.83631138	      0.48583529	     20.22786348
